<?xml version="1.0" encoding="UTF-8" standalone="no"?>
<svg
   xmlns:dc="http://purl.org/dc/elements/1.1/"
   xmlns:cc="http://creativecommons.org/ns#"
   xmlns:rdf="http://www.w3.org/1999/02/22-rdf-syntax-ns#"
   xmlns:svg="http://www.w3.org/2000/svg"
   xmlns="http://www.w3.org/2000/svg"
   xmlns:sodipodi="http://sodipodi.sourceforge.net/DTD/sodipodi-0.dtd"
   xmlns:inkscape="http://www.inkscape.org/namespaces/inkscape"
   id="svg"
   version="1.1"
   width="400"
   height="400"
   viewBox="0 0 400 400"
   sodipodi:docname="Twitter.svg"
   inkscape:version="0.92.3 (unknown)">
  <metadata
     id="metadata10">
    <rdf:RDF>
      <cc:Work
         rdf:about="">
        <dc:format>image/svg+xml</dc:format>
        <dc:type
           rdf:resource="http://purl.org/dc/dcmitype/StillImage" />
        <dc:title></dc:title>
      </cc:Work>
    </rdf:RDF>
  </metadata>
  <defs
     id="defs8" />
  <sodipodi:namedview
     pagecolor="#ffffff"
     bordercolor="#666666"
     borderopacity="1"
     objecttolerance="10"
     gridtolerance="10"
     guidetolerance="10"
     inkscape:pageopacity="0"
     inkscape:pageshadow="2"
     inkscape:window-width="1280"
     inkscape:window-height="1000"
     id="namedview6"
     showgrid="false"
     inkscape:zoom="1.668772"
     inkscape:cx="195.01927"
     inkscape:cy="200.47708"
     inkscape:window-x="0"
     inkscape:window-y="24"
     inkscape:window-maximized="1"
     inkscape:current-layer="svgg" />
  <g
     id="svgg">
    <path
       id="path0"
       d="M238.400 111.028 C 237.850 111.123,236.050 111.409,234.400 111.663 C 210.323 115.363,194.267 138.391,197.840 164.100 L 198.104 166.000 195.952 165.989 C 192.046 165.969,181.112 164.272,174.400 162.644 C 149.113 156.512,126.425 142.667,108.288 122.300 C 105.402 119.059,105.582 119.085,104.286 121.732 C 100.193 130.090,98.465 142.638,100.337 150.400 C 103.038 161.600,107.839 169.641,115.800 176.300 L 119.400 179.311 116.600 179.020 C 111.650 178.504,105.630 176.839,101.922 174.960 C 98.825 173.391,98.641 173.935,99.818 181.189 C 102.645 198.621,115.978 213.456,132.573 217.635 C 137.620 218.906,125.580 220.588,118.628 219.584 C 115.025 219.063,114.912 219.255,116.548 223.134 C 122.580 237.436,139.785 249.963,153.454 250.006 C 156.619 250.016,156.800 250.479,154.347 252.289 C 138.352 264.089,117.404 270.363,97.249 269.390 C 90.771 269.077,90.699 269.137,94.693 271.506 C 160.668 310.643,247.281 282.373,276.394 212.200 C 277.307 210.000,278.225 207.840,278.433 207.400 C 280.275 203.519,284.170 189.329,285.351 182.200 C 286.714 173.978,286.882 172.214,287.094 163.902 L 287.316 155.203 290.758 152.454 C 295.562 148.618,301.179 142.966,305.300 137.821 C 309.589 132.468,309.655 132.107,306.100 133.474 C 301.339 135.305,296.579 136.707,291.522 137.767 C 284.275 139.286,283.859 139.173,287.387 136.645 C 292.913 132.688,298.989 125.135,301.931 118.568 C 303.940 114.084,303.992 114.114,298.828 116.765 C 293.739 119.377,287.650 121.772,281.868 123.437 C 275.626 125.235,274.964 125.215,272.981 123.167 C 265.405 115.343,248.231 109.314,238.400 111.028 "
       stroke="none"
       fill="#ffffff"
       fill-rule="evenodd" />
    <path
       style="fill:#55acee;fill-rule:evenodd;stroke:none"
       d="M 180.4,0.261 C 107.81914,6.5756388 41.101398,56.135719 14.4,123.846 -0.85817189,159.16323 -3.0487148,199.10819 2.748,236.8 15.801001,312.37343 76.419524,376.82197 151,394.585 c 27.24779,6.95117 56.1124,6.80984 83.8,3.015 71.26739,-11.57695 133.31212,-65.27905 155.6,-133.8 10.89275,-30.88295 11.42635,-64.41909 7.652,-96.6 C 386.85491,93.740588 330.84878,29.703511 259.776,8.4 234.18252,-0.34853974 207.1348,-0.49238221 180.4,0.261 Z m 70.203,111.502 c 16.72909,6.86492 30.84861,19.17478 48.225,5.002 16.76583,-2.51179 -29.88185,30.9125 -3.56428,20.14152 10.26548,-4.49434 18.00041,-5.48532 6.70111,4.832 -7.19869,7.81752 -18.16396,12.73845 -14.95069,24.99894 -1.82403,54.13899 -41.0073,104.87442 -93.98761,117.99845 -33.71428,9.18677 -71.93465,4.3205 -100.98253,-15.29366 22.47517,1.13421 46.65764,-3.87813 63.96325,-18.96975 -17.80394,-0.82179 -35.32336,-13.59988 -40.38388,-30.7635 9.12755,0.96282 27.62222,-0.80979 8.00673,-5.49544 -13.39261,-5.60297 -29.09724,-29.63404 -21.7081,-39.25356 10.25201,4.72901 24.18027,6.99144 9.2682,-3.09472 C 98.115659,161.43044 94.445929,124.26362 108.288,122.3 c 22.53004,25.72631 55.49209,42.45067 89.816,43.7 -6.09847,-27.48619 16.94685,-57.71392 46.02175,-54.94988 l 3.63256,0.29949 z"
       id="path1"
       inkscape:connector-curvature="0" />
  </g>
</svg>
